<svg xmlns="http://www.w3.org/2000/svg" width="512" height="512" viewBox="-256 -256 512 512"><defs><radialGradient id="ground"><stop stop-color="#ffac42" stop-opacity=".7"/><stop offset="1" stop-color="#ff7739" stop-opacity="0"/></radialGradient></defs><ellipse cy="52" rx="230" ry="54" fill="url(#ground)" opacity="0"/><g opacity="0.2383928571428573"><path d="M 59.71880628542552 -70.65775066744824 Q 60.28369955841421 -74.65174387815811 60.52579667540937 -72.64573708886797" fill="none" stroke="#282330" stroke-width="7" stroke-linejoin="round" stroke-linecap="round" /><path d="M 59.71880628542552 -70.65775066744824 Q 60.28369955841421 -74.65174387815811 60.52579667540937 -72.64573708886797" fill="none" stroke="#ffd168" stroke-width="3" stroke-linejoin="round" stroke-linecap="round" /></g><g opacity="0.2383928571428573"><path d="M 126.00147248863621 5.088756412948921 Q 127.44838547981787 1.801198688863833 128.06849104746715 4.5136409647787445" fill="none" stroke="#282330" stroke-width="7" stroke-linejoin="round" stroke-linecap="round" /><path d="M 126.00147248863621 5.088756412948921 Q 127.44838547981787 1.801198688863833 128.06849104746715 4.5136409647787445" fill="none" stroke="#ffd168" stroke-width="3" stroke-linejoin="round" stroke-linecap="round" /></g><g opacity="0.2383928571428573"><path d="M 82.30657445685526 70.21673835974624 Q 83.50902630191004 67.85949155608425 84.02436280693352 71.50224475242226" fill="none" stroke="#282330" stroke-width="7" stroke-linejoin="round" stroke-linecap="round" /><path d="M 82.30657445685526 70.21673835974624 Q 83.50902630191004 67.85949155608425 84.02436280693352 71.50224475242226" fill="none" stroke="#ffd168" stroke-width="3" stroke-linejoin="round" stroke-linecap="round" /></g><g opacity="0.2383928571428573"><path d="M 2.714932817884397 155.04074048273856 Q 2.7367656400252214 153.11339498221932 2.7461225637998603 157.18604948170008" fill="none" stroke="#282330" stroke-width="7" stroke-linejoin="round" stroke-linecap="round" /><path d="M 2.714932817884397 155.04074048273856 Q 2.7367656400252214 153.11339498221932 2.7461225637998603 157.18604948170008" fill="none" stroke="#ffd168" stroke-width="3" stroke-linejoin="round" stroke-linecap="round" /></g><g transform="translate(-137.12656479812745 -32.114188060058396) rotate(18.506493506493506)" opacity="1"><g transform="scale(65.40472290116193)"><path d="M 0.67 -0.28 C 1.04 -0.39 1.04 0.39 0.67 0.28 C 0.80 0.36 0.36 0.80 0.28 0.67 C 0.39 1.04 -0.39 1.04 -0.28 0.67 C -0.38 0.84 -0.84 0.38 -0.67 0.28 C -0.96 0.36 -0.96 -0.36 -0.67 -0.28 C -0.93 -0.42 -0.42 -0.93 -0.28 -0.67 C -0.33 -0.87 0.33 -0.87 0.28 -0.67 C 0.46 -1.01 1.01 -0.46 0.67 -0.28 Z" fill="#827786" stroke="#282330" stroke-width="0.07644707871564385" stroke-linejoin="round" stroke-linecap="round" /></g><path d="M -28.12403084749963 -13.080944580232387 Q -21.583558557383437 -37.2806920536623 1.3080944580232388 -29.43212530552287" fill="none" stroke="#b0a0ad" stroke-width="4" stroke-linejoin="round" stroke-linecap="round" /></g><g transform="translate(-92.79373128016064 -98.45788981056414) rotate(47.23753169907016)" opacity="1"><g transform="scale(74.54693939143839)"><path d="M 0.67 -0.28 C 0.95 -0.36 0.95 0.36 0.67 0.28 C 0.85 0.38 0.38 0.85 0.28 0.67 C 0.39 1.03 -0.39 1.03 -0.28 0.67 C -0.36 0.80 -0.80 0.36 -0.67 0.28 C -1.04 0.39 -1.04 -0.39 -0.67 -0.28 C -0.83 -0.38 -0.38 -0.83 -0.28 -0.67 C -0.37 -0.97 0.37 -0.97 0.28 -0.67 C 0.42 -0.92 0.92 -0.42 0.67 -0.28 Z" fill="#696173" stroke="#282330" stroke-width="0.06707183475025727" stroke-linejoin="round" stroke-linecap="round" /></g><path d="M -32.05518393831851 -14.909387878287678 Q -24.60048999917467 -42.49175545311988 1.4909387878287677 -33.546122726147274" fill="none" stroke="#b0a0ad" stroke-width="4" stroke-linejoin="round" stroke-linecap="round" /></g><g transform="translate(-13.183635131834057 -128.67836900192472) rotate(75.9453262786596)" opacity="1"><g transform="scale(84.108679916124)"><path d="M 0.67 -0.28 C 0.85 -0.32 0.85 0.32 0.67 0.28 C 0.96 0.43 0.43 0.96 0.28 0.67 C 0.35 0.94 -0.35 0.94 -0.28 0.67 C -0.39 0.86 -0.86 0.39 -0.67 0.28 C -1.02 0.39 -1.02 -0.39 -0.67 -0.28 C -0.80 -0.36 -0.36 -0.80 -0.28 -0.67 C -0.39 -1.04 0.39 -1.04 0.28 -0.67 C 0.37 -0.83 0.83 -0.37 0.67 -0.28 Z" fill="#827786" stroke="#282330" stroke-width="0.059446896622158" stroke-linejoin="round" stroke-linecap="round" /></g><path d="M -36.16673236393332 -16.8217359832248 Q -27.75586437232092 -47.941947552190676 1.6821735983224801 -37.848905962255806" fill="none" stroke="#b0a0ad" stroke-width="4" stroke-linejoin="round" stroke-linecap="round" /></g><g transform="translate(71.52567043028716 -112.7896122525024) rotate(105.50649350649351)" opacity="1"><g transform="scale(65.40472290116193)"><path d="M 0.67 -0.28 C 0.83 -0.31 0.83 0.31 0.67 0.28 C 1.02 0.46 0.46 1.02 0.28 0.67 C 0.32 0.84 -0.32 0.84 -0.28 0.67 C -0.44 0.97 -0.97 0.44 -0.67 0.28 C -0.93 0.35 -0.93 -0.35 -0.67 -0.28 C -0.87 -0.39 -0.39 -0.87 -0.28 -0.67 C -0.38 -1.02 0.38 -1.02 0.28 -0.67 C 0.36 -0.81 0.81 -0.36 0.67 -0.28 Z" fill="#696173" stroke="#282330" stroke-width="0.07644707871564385" stroke-linejoin="round" stroke-linecap="round" /></g><path d="M -28.12403084749963 -13.080944580232387 Q -21.583558557383437 -37.2806920536623 1.3080944580232388 -29.43212530552287" fill="none" stroke="#b0a0ad" stroke-width="4" stroke-linejoin="round" stroke-linecap="round" /></g><g transform="translate(128.77717848773932 -54.21139943464982) rotate(134.23753169907016)" opacity="1"><g transform="scale(74.54693939143839)"><path d="M 0.67 -0.28 C 0.90 -0.34 0.90 0.34 0.67 0.28 C 0.98 0.44 0.44 0.98 0.28 0.67 C 0.31 0.83 -0.31 0.83 -0.28 0.67 C -0.46 1.02 -1.02 0.46 -0.67 0.28 C -0.84 0.32 -0.84 -0.32 -0.67 -0.28 C -0.98 -0.44 -0.44 -0.98 -0.28 -0.67 C -0.34 -0.91 0.34 -0.91 0.28 -0.67 C 0.40 -0.89 0.89 -0.40 0.67 -0.28 Z" fill="#827786" stroke="#282330" stroke-width="0.06707183475025727" stroke-linejoin="round" stroke-linecap="round" /></g><path d="M -32.05518393831851 -14.909387878287678 Q -24.60048999917467 -42.49175545311988 1.4909387878287677 -33.546122726147274" fill="none" stroke="#b0a0ad" stroke-width="4" stroke-linejoin="round" stroke-linecap="round" /></g><g transform="translate(-73.73271889400922 -7.30414746543779) rotate(-11.36405529953917)" opacity="1"><g transform="scale(60.65643780846396)"><path d="M 0.67 -0.28 C 0.85 -0.32 0.85 0.32 0.67 0.28 C 0.96 0.43 0.43 0.96 0.28 0.67 C 0.35 0.94 -0.35 0.94 -0.28 0.67 C -0.39 0.86 -0.86 0.39 -0.67 0.28 C -1.02 0.39 -1.02 -0.39 -0.67 -0.28 C -0.80 -0.36 -0.36 -0.80 -0.28 -0.67 C -0.39 -1.04 0.39 -1.04 0.28 -0.67 C 0.37 -0.83 0.83 -0.37 0.67 -0.28 Z" fill="#736778" stroke="#282330" stroke-width="0.0741883328890783" stroke-linejoin="round" stroke-linecap="round" /></g><path d="M -26.082268257639505 -3.6393862685078378 C -30.32821890423198 -24.262575123385588 2.4262575123385584 -30.934783282316623 13.950980695946711 -15.16410945211599" fill="none" stroke="#b9a5ae" stroke-width="3.5" stroke-linejoin="round" stroke-linecap="round" /></g><g transform="translate(0 -22.672350598283597) rotate(8.346938775510203)" opacity="1"><g transform="scale(74.14996244417908)"><path d="M 0.67 -0.28 C 0.83 -0.31 0.83 0.31 0.67 0.28 C 1.02 0.46 0.46 1.02 0.28 0.67 C 0.32 0.84 -0.32 0.84 -0.28 0.67 C -0.44 0.97 -0.97 0.44 -0.67 0.28 C -0.93 0.35 -0.93 -0.35 -0.67 -0.28 C -0.87 -0.39 -0.39 -0.87 -0.28 -0.67 C -0.38 -1.02 0.38 -1.02 0.28 -0.67 C 0.36 -0.81 0.81 -0.36 0.67 -0.28 Z" fill="#8f8090" stroke="#282330" stroke-width="0.06068782574755382" stroke-linejoin="round" stroke-linecap="round" /></g><path d="M -31.884483850997004 -4.448997746650745 C -37.07498122208954 -29.659984977671634 2.9659984977671634 -37.816480846531334 17.05449136216119 -18.53749061104477" fill="none" stroke="#b9a5ae" stroke-width="3.5" stroke-linejoin="round" stroke-linecap="round" /></g><g transform="translate(73.73271889400922 10.127367982833977) rotate(26.63594470046083)" opacity="1"><g transform="scale(60.65643780846396)"><path d="M 0.67 -0.28 C 0.90 -0.34 0.90 0.34 0.67 0.28 C 0.98 0.44 0.44 0.98 0.28 0.67 C 0.31 0.83 -0.31 0.83 -0.28 0.67 C -0.46 1.02 -1.02 0.46 -0.67 0.28 C -0.84 0.32 -0.84 -0.32 -0.67 -0.28 C -0.98 -0.44 -0.44 -0.98 -0.28 -0.67 C -0.34 -0.91 0.34 -0.91 0.28 -0.67 C 0.40 -0.89 0.89 -0.40 0.67 -0.28 Z" fill="#736778" stroke="#282330" stroke-width="0.0741883328890783" stroke-linejoin="round" stroke-linecap="round" /></g><path d="M -26.082268257639505 -3.6393862685078378 C -30.32821890423198 -24.262575123385588 2.4262575123385584 -30.934783282316623 13.950980695946711 -15.16410945211599" fill="none" stroke="#b9a5ae" stroke-width="3.5" stroke-linejoin="round" stroke-linecap="round" /></g></svg>