<svg xmlns="http://www.w3.org/2000/svg" width="512" height="512" viewBox="-256 -256 512 512"><defs><radialGradient id="ground"><stop stop-color="#ffac42" stop-opacity=".7"/><stop offset="1" stop-color="#ff7739" stop-opacity="0"/></radialGradient></defs><ellipse cy="52" rx="230" ry="54" fill="url(#ground)" opacity="0.7642857142857142"/><g opacity="0.24285714285714283" fill="none" stroke-linecap="round"><ellipse cy="52" rx="236.91545189504373" ry="63.859708454810495" stroke="#b94926" stroke-width="5.428571428571429"/><ellipse cy="49" rx="236.91545189504373" ry="63.859708454810495" stroke="#ffe7ab" stroke-width="3"/></g><g opacity="0.4070616883116883" fill="none" stroke-linecap="round"><ellipse cy="52" rx="218.05689858571284" ry="59.33365566057108" stroke="#b94926" stroke-width="7.746753246753247"/><ellipse cy="49" rx="218.05689858571284" ry="59.33365566057108" stroke="#ffe7ab" stroke-width="4.3522727272727275"/></g><g opacity="1"><path d="M 77.33100088908706 -12.518397221992762 Q 82.69282693430452 -14.333677822073643 84.99075238225487 -10.148958422154521" fill="none" stroke="#282330" stroke-width="7" stroke-linejoin="round" stroke-linecap="round" /><path d="M 77.33100088908706 -12.518397221992762 Q 82.69282693430452 -14.333677822073643 84.99075238225487 -10.148958422154521" fill="none" stroke="#fff6cc" stroke-width="3" stroke-linejoin="round" stroke-linecap="round" /></g><g opacity="1"><path d="M -82.68684357784208 -4.019876675043331 Q -90.67054105821191 -4.3171003679298305 -94.09212569265613 1.3856759391836695" fill="none" stroke="#282330" stroke-width="7" stroke-linejoin="round" stroke-linecap="round" /><path d="M -82.68684357784208 -4.019876675043331 Q -90.67054105821191 -4.3171003679298305 -94.09212569265613 1.3856759391836695" fill="none" stroke="#ffd168" stroke-width="3" stroke-linejoin="round" stroke-linecap="round" /></g><g opacity="1"><path d="M 37.247248307536175 -85.50932066922915 Q 41.87429545370198 -96.65113022661671 43.85731565920162 -101.79293978400426" fill="none" stroke="#282330" stroke-width="7" stroke-linejoin="round" stroke-linecap="round" /><path d="M 37.247248307536175 -85.50932066922915 Q 41.87429545370198 -96.65113022661671 43.85731565920162 -101.79293978400426" fill="none" stroke="#ffd168" stroke-width="3" stroke-linejoin="round" stroke-linecap="round" /></g><g opacity="1"><path d="M 53.15719344165057 66.48814645763422 Q 55.118468959216564 67.24433554041616 55.95901560960199 74.00052462319812" fill="none" stroke="#282330" stroke-width="7" stroke-linejoin="round" stroke-linecap="round" /><path d="M 53.15719344165057 66.48814645763422 Q 55.118468959216564 67.24433554041616 55.95901560960199 74.00052462319812" fill="none" stroke="#fff6cc" stroke-width="3" stroke-linejoin="round" stroke-linecap="round" /></g><g opacity="1"><path d="M -61.99913680138402 -48.5858628393828 Q -69.87124706225009 -54.450772376078966 -73.24500860262125 -54.31568191277514" fill="none" stroke="#282330" stroke-width="7" stroke-linejoin="round" stroke-linecap="round" /><path d="M -61.99913680138402 -48.5858628393828 Q -69.87124706225009 -54.450772376078966 -73.24500860262125 -54.31568191277514" fill="none" stroke="#ffd168" stroke-width="3" stroke-linejoin="round" stroke-linecap="round" /></g><g opacity="1"><path d="M 75.86814064023605 -41.17206508728431 Q 87.71982120845433 -46.52745363625093 92.79911288054788 -45.882842185217555" fill="none" stroke="#282330" stroke-width="7" stroke-linejoin="round" stroke-linecap="round" /><path d="M 75.86814064023605 -41.17206508728431 Q 87.71982120845433 -46.52745363625093 92.79911288054788 -45.882842185217555" fill="none" stroke="#ffd168" stroke-width="3" stroke-linejoin="round" stroke-linecap="round" /></g><g opacity="1"><path d="M -67.85623227844685 43.913771618399174 Q -70.82244038932144 44.31708375759937 -72.09367243683913 50.72039589679957" fill="none" stroke="#282330" stroke-width="7" stroke-linejoin="round" stroke-linecap="round" /><path d="M -67.85623227844685 43.913771618399174 Q -70.82244038932144 44.31708375759937 -72.09367243683913 50.72039589679957" fill="none" stroke="#fff6cc" stroke-width="3" stroke-linejoin="round" stroke-linecap="round" /></g><g opacity="1"><path d="M -24.997461462134254 -115.42151413900702 Q -26.62922512077838 -124.62366042494774 -27.328552403054434 -127.82580671088847" fill="none" stroke="#282330" stroke-width="7" stroke-linejoin="round" stroke-linecap="round" /><path d="M -24.997461462134254 -115.42151413900702 Q -26.62922512077838 -124.62366042494774 -27.328552403054434 -127.82580671088847" fill="none" stroke="#ffd168" stroke-width="3" stroke-linejoin="round" stroke-linecap="round" /></g><g opacity="1"><path d="M 46.814078554019694 -7.872139268134743 Q 56.66337512755836 -5.607340614984126 60.88450223050351 2.6574580381664914" fill="none" stroke="#282330" stroke-width="7" stroke-linejoin="round" stroke-linecap="round" /><path d="M 46.814078554019694 -7.872139268134743 Q 56.66337512755836 -5.607340614984126 60.88450223050351 2.6574580381664914" fill="none" stroke="#ffd168" stroke-width="3" stroke-linejoin="round" stroke-linecap="round" /></g><g opacity="1"><path d="M -104.14566893844953 -21.16693706079328 Q -109.73004650555475 -23.76611937741064 -112.12335117717127 -20.365301694028002" fill="none" stroke="#282330" stroke-width="7" stroke-linejoin="round" stroke-linecap="round" /><path d="M -104.14566893844953 -21.16693706079328 Q -109.73004650555475 -23.76611937741064 -112.12335117717127 -20.365301694028002" fill="none" stroke="#fff6cc" stroke-width="3" stroke-linejoin="round" stroke-linecap="round" /></g><g opacity="1"><path d="M 75.47505370506538 -83.4985236804191 Q 81.35403130800275 -91.20928249880282 83.87359313783305 -92.92004131718653" fill="none" stroke="#282330" stroke-width="7" stroke-linejoin="round" stroke-linecap="round" /><path d="M 75.47505370506538 -83.4985236804191 Q 81.35403130800275 -91.20928249880282 83.87359313783305 -92.92004131718653" fill="none" stroke="#ffd168" stroke-width="3" stroke-linejoin="round" stroke-linecap="round" /></g><g opacity="1"><path d="M 1.7343795229707528 47.17215063687863 Q 1.913212414438851 52.95827569442324 1.989855082210893 64.74440075196786" fill="none" stroke="#282330" stroke-width="7" stroke-linejoin="round" stroke-linecap="round" /><path d="M 1.7343795229707528 47.17215063687863 Q 1.913212414438851 52.95827569442324 1.989855082210893 64.74440075196786" fill="none" stroke="#ffd168" stroke-width="3" stroke-linejoin="round" stroke-linecap="round" /></g><g opacity="1"><path d="M -55.5970675964673 -66.16804485875298 Q -59.45194858402895 -72.08177456952167 -61.10404043584108 -71.99550428029036" fill="none" stroke="#282330" stroke-width="7" stroke-linejoin="round" stroke-linecap="round" /><path d="M -55.5970675964673 -66.16804485875298 Q -59.45194858402895 -72.08177456952167 -61.10404043584108 -71.99550428029036" fill="none" stroke="#fff6cc" stroke-width="3" stroke-linejoin="round" stroke-linecap="round" /></g><g transform="translate(-99.33256447158577 -9.31954907564783) rotate(5.51948051948052)" opacity="1"><g transform="scale(67.40585618288435)"><path d="M 0.67 -0.28 C 1.04 -0.39 1.04 0.39 0.67 0.28 C 0.80 0.36 0.36 0.80 0.28 0.67 C 0.39 1.04 -0.39 1.04 -0.28 0.67 C -0.38 0.84 -0.84 0.38 -0.67 0.28 C -0.96 0.36 -0.96 -0.36 -0.67 -0.28 C -0.93 -0.42 -0.42 -0.93 -0.28 -0.67 C -0.33 -0.87 0.33 -0.87 0.28 -0.67 C 0.46 -1.01 1.01 -0.46 0.67 -0.28 Z" fill="#827786" stroke="#282330" stroke-width="0.07417753119898203" stroke-linejoin="round" stroke-linecap="round" /></g><path d="M -28.98451815864027 -13.48117123657687 Q -22.243932540351835 -38.42133802424408 1.348117123657687 -30.332635282297957" fill="none" stroke="#b0a0ad" stroke-width="4" stroke-linejoin="round" stroke-linecap="round" /></g><g transform="translate(-63.867337789414684 -51.271420894448624) rotate(33.71259509721048)" opacity="1"><g transform="scale(73.74178257344207)"><path d="M 0.67 -0.28 C 0.95 -0.36 0.95 0.36 0.67 0.28 C 0.85 0.38 0.38 0.85 0.28 0.67 C 0.39 1.03 -0.39 1.03 -0.28 0.67 C -0.36 0.80 -0.80 0.36 -0.67 0.28 C -1.04 0.39 -1.04 -0.39 -0.67 -0.28 C -0.83 -0.38 -0.38 -0.83 -0.28 -0.67 C -0.37 -0.97 0.37 -0.97 0.28 -0.67 C 0.42 -0.92 0.92 -0.42 0.67 -0.28 Z" fill="#696173" stroke="#282330" stroke-width="0.06780416509487443" stroke-linejoin="round" stroke-linecap="round" /></g><path d="M -31.708966506580087 -14.748356514688414 Q -24.33478824923588 -42.032816066861976 1.4748356514688414 -33.183802158048934" fill="none" stroke="#b0a0ad" stroke-width="4" stroke-linejoin="round" stroke-linecap="round" /></g><g transform="translate(-8.51025578756604 -64.59998556222716) rotate(61.835978835978835)" opacity="1"><g transform="scale(79.33350758315325)"><path d="M 0.67 -0.28 C 0.85 -0.32 0.85 0.32 0.67 0.28 C 0.96 0.43 0.43 0.96 0.28 0.67 C 0.35 0.94 -0.35 0.94 -0.28 0.67 C -0.39 0.86 -0.86 0.39 -0.67 0.28 C -1.02 0.39 -1.02 -0.39 -0.67 -0.28 C -0.80 -0.36 -0.36 -0.80 -0.28 -0.67 C -0.39 -1.04 0.39 -1.04 0.28 -0.67 C 0.37 -0.83 0.83 -0.37 0.67 -0.28 Z" fill="#827786" stroke="#282330" stroke-width="0.06302507165410857" stroke-linejoin="round" stroke-linecap="round" /></g><path d="M -34.1134082607559 -15.86670151663065 Q -26.180057502440572 -45.220099322397346 1.586670151663065 -35.70007841241896" fill="none" stroke="#b0a0ad" stroke-width="4" stroke-linejoin="round" stroke-linecap="round" /></g><g transform="translate(51.81219466738158 -65.69481219599811) rotate(92.51948051948052)" opacity="1"><g transform="scale(67.40585618288435)"><path d="M 0.67 -0.28 C 0.83 -0.31 0.83 0.31 0.67 0.28 C 1.02 0.46 0.46 1.02 0.28 0.67 C 0.32 0.84 -0.32 0.84 -0.28 0.67 C -0.44 0.97 -0.97 0.44 -0.67 0.28 C -0.93 0.35 -0.93 -0.35 -0.67 -0.28 C -0.87 -0.39 -0.39 -0.87 -0.28 -0.67 C -0.38 -1.02 0.38 -1.02 0.28 -0.67 C 0.36 -0.81 0.81 -0.36 0.67 -0.28 Z" fill="#696173" stroke="#282330" stroke-width="0.07417753119898203" stroke-linejoin="round" stroke-linecap="round" /></g><path d="M -28.98451815864027 -13.48117123657687 Q -22.243932540351835 -38.42133802424408 1.348117123657687 -30.332635282297957" fill="none" stroke="#b0a0ad" stroke-width="4" stroke-linejoin="round" stroke-linecap="round" /></g><g transform="translate(88.63374114370406 -22.100597788491637) rotate(120.71259509721048)" opacity="1"><g transform="scale(73.74178257344207)"><path d="M 0.67 -0.28 C 0.90 -0.34 0.90 0.34 0.67 0.28 C 0.98 0.44 0.44 0.98 0.28 0.67 C 0.31 0.83 -0.31 0.83 -0.28 0.67 C -0.46 1.02 -1.02 0.46 -0.67 0.28 C -0.84 0.32 -0.84 -0.32 -0.67 -0.28 C -0.98 -0.44 -0.44 -0.98 -0.28 -0.67 C -0.34 -0.91 0.34 -0.91 0.28 -0.67 C 0.40 -0.89 0.89 -0.40 0.67 -0.28 Z" fill="#827786" stroke="#282330" stroke-width="0.06780416509487443" stroke-linejoin="round" stroke-linecap="round" /></g><path d="M -31.708966506580087 -14.748356514688414 Q -24.33478824923588 -42.032816066861976 1.4748356514688414 -33.183802158048934" fill="none" stroke="#b0a0ad" stroke-width="4" stroke-linejoin="round" stroke-linecap="round" /></g><g transform="translate(-7 -3) scale(164.00651823474993 197.55312379489953)" opacity="1"><path d="M 0.67 -0.28 C 1.04 -0.39 1.04 0.39 0.67 0.28 C 0.80 0.36 0.36 0.80 0.28 0.67 C 0.39 1.03 -0.39 1.03 -0.28 0.67 C -0.38 0.85 -0.85 0.38 -0.67 0.28 C -0.96 0.36 -0.96 -0.36 -0.67 -0.28 C -0.94 -0.42 -0.42 -0.94 -0.28 -0.67 C -0.33 -0.86 0.33 -0.86 0.28 -0.67 C 0.46 -1.01 1.01 -0.46 0.67 -0.28 Z" fill="#ed592b" stroke="#282330" stroke-width="0.03888888888888889" stroke-linejoin="round" stroke-linecap="round" /><g transform="translate(-.04 -.09) scale(.87 .88)"><path d="M 0.67 -0.28 C 1.04 -0.39 1.04 0.39 0.67 0.28 C 0.80 0.36 0.36 0.80 0.28 0.67 C 0.39 1.03 -0.39 1.03 -0.28 0.67 C -0.38 0.85 -0.85 0.38 -0.67 0.28 C -0.96 0.36 -0.96 -0.36 -0.67 -0.28 C -0.94 -0.42 -0.42 -0.94 -0.28 -0.67 C -0.33 -0.86 0.33 -0.86 0.28 -0.67 C 0.46 -1.01 1.01 -0.46 0.67 -0.28 Z" fill="#ff963b" stroke="none" stroke-width="0" stroke-linejoin="round" stroke-linecap="round" /></g><g transform="translate(-0.12 -0.06) rotate(1.1999999999999993) scale(.72 .79)"><path d="M 0.67 -0.28 C 0.82 -0.31 0.82 0.31 0.67 0.28 C 1.00 0.45 0.45 1.00 0.28 0.67 C 0.33 0.88 -0.33 0.88 -0.28 0.67 C -0.42 0.92 -0.92 0.42 -0.67 0.28 C -0.97 0.37 -0.97 -0.37 -0.67 -0.28 C -0.83 -0.38 -0.38 -0.83 -0.28 -0.67 C -0.39 -1.04 0.39 -1.04 0.28 -0.67 C 0.36 -0.80 0.80 -0.36 0.67 -0.28 Z" fill="#ffd35c" stroke="none" stroke-width="0" stroke-linejoin="round" stroke-linecap="round" /></g><g transform="translate(-0.15 -0.07) rotate(6.571428571428571) scale(0.44 0.5)"><path d="M 0.67 -0.28 C 0.99 -0.38 0.99 0.38 0.67 0.28 C 0.82 0.37 0.37 0.82 0.28 0.67 C 0.40 1.05 -0.40 1.05 -0.28 0.67 C -0.36 0.81 -0.81 0.36 -0.67 0.28 C -1.02 0.38 -1.02 -0.38 -0.67 -0.28 C -0.87 -0.39 -0.39 -0.87 -0.28 -0.67 C -0.35 -0.93 0.35 -0.93 0.28 -0.67 C 0.43 -0.96 0.96 -0.43 0.67 -0.28 Z" fill="#fff3b5" stroke="none" stroke-width="0" stroke-linejoin="round" stroke-linecap="round" /></g><path d="M -.7 .29 C -.82 .04 -.63 -.16 -.49 -.13 M .46 -.48 C .68 -.36 .7 -.15 .56 -.02 M -.12 .64 Q .17 .73 .33 .53" fill="none" stroke="#ed692b" stroke-width="0.05" stroke-linejoin="round" stroke-linecap="round" /><path d="M -.72 -.18 Q -.88 -.39 -.63 -.5 M .42 -.69 Q .63 -.72 .68 -.51" fill="none" stroke="#ffc05d" stroke-width="0.022222222222222223" stroke-linejoin="round" stroke-linecap="round" /></g><g transform="translate(-75.32507288629738 38.69825072886297) rotate(17.091836734693878) scale(46.999344023323616)" opacity="1"><path d="M 0.67 -0.28 C 0.94 -0.35 0.94 0.35 0.67 0.28 C 0.96 0.43 0.43 0.96 0.28 0.67 C 0.32 0.85 -0.32 0.85 -0.28 0.67 C -0.46 1.02 -1.02 0.46 -0.67 0.28 C -0.83 0.31 -0.83 -0.31 -0.67 -0.28 C -1.00 -0.45 -0.45 -1.00 -0.28 -0.67 C -0.33 -0.88 0.33 -0.88 0.28 -0.67 C 0.41 -0.92 0.92 -0.41 0.67 -0.28 Z" fill="#f67a31" stroke="#282330" stroke-width="0.08510757082088174" stroke-linejoin="round" stroke-linecap="round" /><g transform="translate(-.1 -.14) scale(.72)"><path d="M 0.67 -0.28 C 0.94 -0.35 0.94 0.35 0.67 0.28 C 0.96 0.43 0.43 0.96 0.28 0.67 C 0.32 0.85 -0.32 0.85 -0.28 0.67 C -0.46 1.02 -1.02 0.46 -0.67 0.28 C -0.83 0.31 -0.83 -0.31 -0.67 -0.28 C -1.00 -0.45 -0.45 -1.00 -0.28 -0.67 C -0.33 -0.88 0.33 -0.88 0.28 -0.67 C 0.41 -0.92 0.92 -0.41 0.67 -0.28 Z" fill="#ffd064" stroke="none" stroke-width="0" stroke-linejoin="round" stroke-linecap="round" /></g></g><g transform="translate(0 56.66877938957133) rotate(62.66326530612245) scale(55.2765306122449)" opacity="1"><path d="M 0.67 -0.28 C 1.03 -0.39 1.03 0.39 0.67 0.28 C 0.85 0.39 0.39 0.85 0.28 0.67 C 0.36 0.95 -0.36 0.95 -0.28 0.67 C -0.43 0.95 -0.95 0.43 -0.67 0.28 C -0.86 0.32 -0.86 -0.32 -0.67 -0.28 C -1.01 -0.46 -0.46 -1.01 -0.28 -0.67 C -0.31 -0.82 0.31 -0.82 0.28 -0.67 C 0.45 -1.01 1.01 -0.45 0.67 -0.28 Z" fill="#f67a31" stroke="#282330" stroke-width="0.07236344169389526" stroke-linejoin="round" stroke-linecap="round" /><g transform="translate(-.1 -.14) scale(.72)"><path d="M 0.67 -0.28 C 1.03 -0.39 1.03 0.39 0.67 0.28 C 0.85 0.39 0.39 0.85 0.28 0.67 C 0.36 0.95 -0.36 0.95 -0.28 0.67 C -0.43 0.95 -0.95 0.43 -0.67 0.28 C -0.86 0.32 -0.86 -0.32 -0.67 -0.28 C -1.01 -0.46 -0.46 -1.01 -0.28 -0.67 C -0.31 -0.82 0.31 -0.82 0.28 -0.67 C 0.45 -1.01 1.01 -0.45 0.67 -0.28 Z" fill="#ffd064" stroke="none" stroke-width="0" stroke-linejoin="round" stroke-linecap="round" /></g></g><g transform="translate(74.100583090379 25.706758420053152) rotate(108.23469387755102) scale(49.339752186588925)" opacity="1"><path d="M 0.67 -0.28 C 1.04 -0.39 1.04 0.39 0.67 0.28 C 0.80 0.36 0.36 0.80 0.28 0.67 C 0.39 1.04 -0.39 1.04 -0.28 0.67 C -0.38 0.84 -0.84 0.38 -0.67 0.28 C -0.96 0.36 -0.96 -0.36 -0.67 -0.28 C -0.93 -0.42 -0.42 -0.93 -0.28 -0.67 C -0.33 -0.87 0.33 -0.87 0.28 -0.67 C 0.46 -1.01 1.01 -0.46 0.67 -0.28 Z" fill="#f67a31" stroke="#282330" stroke-width="0.08107053284080423" stroke-linejoin="round" stroke-linecap="round" /><g transform="translate(-.1 -.14) scale(.72)"><path d="M 0.67 -0.28 C 1.04 -0.39 1.04 0.39 0.67 0.28 C 0.80 0.36 0.36 0.80 0.28 0.67 C 0.39 1.04 -0.39 1.04 -0.28 0.67 C -0.38 0.84 -0.84 0.38 -0.67 0.28 C -0.96 0.36 -0.96 -0.36 -0.67 -0.28 C -0.93 -0.42 -0.42 -0.93 -0.28 -0.67 C -0.33 -0.87 0.33 -0.87 0.28 -0.67 C 0.46 -1.01 1.01 -0.46 0.67 -0.28 Z" fill="#ffd064" stroke="none" stroke-width="0" stroke-linejoin="round" stroke-linecap="round" /></g></g></svg>