<svg xmlns="http://www.w3.org/2000/svg" width="512" height="512" viewBox="-256 -256 512 512"><defs><radialGradient id="ground"><stop stop-color="#ffac42" stop-opacity=".7"/><stop offset="1" stop-color="#ff7739" stop-opacity="0"/></radialGradient></defs><ellipse cy="52" rx="230" ry="54" fill="url(#ground)" opacity="0.5499999999999999"/><g opacity="0.0772727272727272" fill="none" stroke-linecap="round"><ellipse cy="52" rx="241.83621337340344" ry="65.04069120961682" stroke="#b94926" stroke-width="3.09090909090909"/><ellipse cy="49" rx="241.83621337340344" ry="65.04069120961682" stroke="#ffe7ab" stroke-width="1.6363636363636358"/></g><g opacity="0.2414772727272727" fill="none" stroke-linecap="round"><ellipse cy="52" rx="237.00162882700977" ry="63.88039091848234" stroke="#b94926" stroke-width="5.409090909090908"/><ellipse cy="49" rx="237.00162882700977" ry="63.88039091848234" stroke="#ffe7ab" stroke-width="2.9886363636363633"/></g><g opacity="1"><path d="M 88.67080845876481 -1.0710448198545515 Q 92.59962977029386 -3.2029542127868664 94.28341033237774 0.6651363942808182" fill="none" stroke="#282330" stroke-width="7" stroke-linejoin="round" stroke-linecap="round" /><path d="M 88.67080845876481 -1.0710448198545515 Q 92.59962977029386 -3.2029542127868664 94.28341033237774 0.6651363942808182" fill="none" stroke="#fff6cc" stroke-width="3" stroke-linejoin="round" stroke-linecap="round" /></g><g opacity="1"><path d="M -97.92992329395366 4.505218329578661 Q -104.28706101601385 3.6573441157182724 -107.0115486111825 8.809469901857884" fill="none" stroke="#282330" stroke-width="7" stroke-linejoin="round" stroke-linecap="round" /><path d="M -97.92992329395366 4.505218329578661 Q -104.28706101601385 3.6573441157182724 -107.0115486111825 8.809469901857884" fill="none" stroke="#ffd168" stroke-width="3" stroke-linejoin="round" stroke-linecap="round" /></g><g opacity="1"><path d="M 45.29873626245474 -99.80345575549339 Q 49.16412955739984 -109.60504974787887 50.820726683804885 -113.40664374026436" fill="none" stroke="#282330" stroke-width="7" stroke-linejoin="round" stroke-linecap="round" /><path d="M 45.29873626245474 -99.80345575549339 Q 49.16412955739984 -109.60504974787887 50.820726683804885 -113.40664374026436" fill="none" stroke="#ffd168" stroke-width="3" stroke-linejoin="round" stroke-linecap="round" /></g><g opacity="1"><path d="M 60.024416785778655 88.51067965926036 Q 61.461520672814764 88.26298747270192 62.077422338687384 94.01529528614348" fill="none" stroke="#282330" stroke-width="7" stroke-linejoin="round" stroke-linecap="round" /><path d="M 60.024416785778655 88.51067965926036 Q 61.461520672814764 88.26298747270192 62.077422338687384 94.01529528614348" fill="none" stroke="#fff6cc" stroke-width="3" stroke-linejoin="round" stroke-linecap="round" /></g><g opacity="1"><path d="M -74.34730266845293 -49.97757066244879 Q -80.61558740927836 -55.25879744124422 -83.3019951553464 -54.54002422003964" fill="none" stroke="#282330" stroke-width="7" stroke-linejoin="round" stroke-linecap="round" /><path d="M -74.34730266845293 -49.97757066244879 Q -80.61558740927836 -55.25879744124422 -83.3019951553464 -54.54002422003964" fill="none" stroke="#ffd168" stroke-width="3" stroke-linejoin="round" stroke-linecap="round" /></g><g opacity="1"><path d="M 93.38923859184253 -44.68412354360506 Q 103.29002523936644 -49.6517938129064 107.5332195168767 -48.619464082207735" fill="none" stroke="#282330" stroke-width="7" stroke-linejoin="round" stroke-linecap="round" /><path d="M 93.38923859184253 -44.68412354360506 Q 103.29002523936644 -49.6517938129064 107.5332195168767 -48.619464082207735" fill="none" stroke="#ffd168" stroke-width="3" stroke-linejoin="round" stroke-linecap="round" /></g><g opacity="1"><path d="M -76.87125925850152 63.20229860339179 Q -79.0447168720377 62.696039569531806 -79.97619870641034 68.18978053567182" fill="none" stroke="#282330" stroke-width="7" stroke-linejoin="round" stroke-linecap="round" /><path d="M -76.87125925850152 63.20229860339179 Q -79.0447168720377 62.696039569531806 -79.97619870641034 68.18978053567182" fill="none" stroke="#fff6cc" stroke-width="3" stroke-linejoin="round" stroke-linecap="round" /></g><g opacity="1"><path d="M -29.224763589238787 -128.26643540735074 Q -30.52407964340533 -136.20498652467876 -31.08092938090528 -138.14353764200678" fill="none" stroke="#282330" stroke-width="7" stroke-linejoin="round" stroke-linecap="round" /><path d="M -29.224763589238787 -128.26643540735074 Q -30.52407964340533 -136.20498652467876 -31.08092938090528 -138.14353764200678" fill="none" stroke="#ffd168" stroke-width="3" stroke-linejoin="round" stroke-linecap="round" /></g><g opacity="1"><path d="M 58.797086945496076 -1.168545879224757 Q 67.02510013244401 0.229619250773494 70.55139149827885 7.627784380771745" fill="none" stroke="#282330" stroke-width="7" stroke-linejoin="round" stroke-linecap="round" /><path d="M 58.797086945496076 -1.168545879224757 Q 67.02510013244401 0.229619250773494 70.55139149827885 7.627784380771745" fill="none" stroke="#ffd168" stroke-width="3" stroke-linejoin="round" stroke-linecap="round" /></g><g opacity="1"><path d="M -118.53705149769509 -11.255623928123063 Q -122.62894508250048 -13.961929010900594 -124.38261376170279 -10.668234093678127" fill="none" stroke="#282330" stroke-width="7" stroke-linejoin="round" stroke-linecap="round" /><path d="M -118.53705149769509 -11.255623928123063 Q -122.62894508250048 -13.961929010900594 -124.38261376170279 -10.668234093678127" fill="none" stroke="#fff6cc" stroke-width="3" stroke-linejoin="round" stroke-linecap="round" /></g><g opacity="1"><path d="M 88.70248740336724 -90.94297431647097 Q 93.38371065596084 -97.6939860071704 95.38994919278667 -98.44499769786982" fill="none" stroke="#282330" stroke-width="7" stroke-linejoin="round" stroke-linecap="round" /><path d="M 88.70248740336724 -90.94297431647097 Q 93.38371065596084 -97.6939860071704 95.38994919278667 -98.44499769786982" fill="none" stroke="#ffd168" stroke-width="3" stroke-linejoin="round" stroke-linecap="round" /></g><g opacity="1"><path d="M 2.092370798816144 64.892834254707 Q 2.2417661772853785 69.23268358261464 2.3057927680579073 79.57253291052228" fill="none" stroke="#282330" stroke-width="7" stroke-linejoin="round" stroke-linecap="round" /><path d="M 2.092370798816144 64.892834254707 Q 2.2417661772853785 69.23268358261464 2.3057927680579073 79.57253291052228" fill="none" stroke="#ffd168" stroke-width="3" stroke-linejoin="round" stroke-linecap="round" /></g><g opacity="1"><path d="M -63.74981411123892 -63.673533512146705 Q -66.57443737383977 -68.80853813317766 -67.7849902006687 -67.94354275420862" fill="none" stroke="#282330" stroke-width="7" stroke-linejoin="round" stroke-linecap="round" /><path d="M -63.74981411123892 -63.673533512146705 Q -66.57443737383977 -68.80853813317766 -67.7849902006687 -67.94354275420862" fill="none" stroke="#fff6cc" stroke-width="3" stroke-linejoin="round" stroke-linecap="round" /></g><g transform="translate(-112.28734388039061 -14.874423109633021) rotate(7.954545454545456)" opacity="1"><g transform="scale(73.0623521718563)"><path d="M 0.67 -0.28 C 1.04 -0.39 1.04 0.39 0.67 0.28 C 0.80 0.36 0.36 0.80 0.28 0.67 C 0.39 1.04 -0.39 1.04 -0.28 0.67 C -0.38 0.84 -0.84 0.38 -0.67 0.28 C -0.96 0.36 -0.96 -0.36 -0.67 -0.28 C -0.93 -0.42 -0.42 -0.93 -0.28 -0.67 C -0.33 -0.87 0.33 -0.87 0.28 -0.67 C 0.46 -1.01 1.01 -0.46 0.67 -0.28 Z" fill="#827786" stroke="#282330" stroke-width="0.06843469791718539" stroke-linejoin="round" stroke-linecap="round" /></g><path d="M -31.41681143389821 -14.61247043437126 Q -24.11057621671258 -41.645540737958086 1.461247043437126 -32.87805847733534" fill="none" stroke="#b0a0ad" stroke-width="4" stroke-linejoin="round" stroke-linecap="round" /></g><g transform="translate(-73.78253712071532 -65.09361804239529) rotate(36.248520710059175)" opacity="1"><g transform="scale(80.75598901729748)"><path d="M 0.67 -0.28 C 0.95 -0.36 0.95 0.36 0.67 0.28 C 0.85 0.38 0.38 0.85 0.28 0.67 C 0.39 1.03 -0.39 1.03 -0.28 0.67 C -0.36 0.80 -0.80 0.36 -0.67 0.28 C -1.04 0.39 -1.04 -0.39 -0.67 -0.28 C -0.83 -0.38 -0.38 -0.83 -0.28 -0.67 C -0.37 -0.97 0.37 -0.97 0.28 -0.67 C 0.42 -0.92 0.92 -0.42 0.67 -0.28 Z" fill="#696173" stroke="#282330" stroke-width="0.06191491257606947" stroke-linejoin="round" stroke-linecap="round" /></g><path d="M -34.72507527743792 -16.151197803459496 Q -26.64947637570817 -46.03091373985956 1.6151197803459496 -36.340195057783866" fill="none" stroke="#b0a0ad" stroke-width="4" stroke-linejoin="round" stroke-linecap="round" /></g><g transform="translate(-10.112166090142285 -84.11064961959167) rotate(64.48148148148148)" opacity="1"><g transform="scale(88.04011545966532)"><path d="M 0.67 -0.28 C 0.85 -0.32 0.85 0.32 0.67 0.28 C 0.96 0.43 0.43 0.96 0.28 0.67 C 0.35 0.94 -0.35 0.94 -0.28 0.67 C -0.39 0.86 -0.86 0.39 -0.67 0.28 C -1.02 0.39 -1.02 -0.39 -0.67 -0.28 C -0.80 -0.36 -0.36 -0.80 -0.28 -0.67 C -0.39 -1.04 0.39 -1.04 0.28 -0.67 C 0.37 -0.83 0.83 -0.37 0.67 -0.28 Z" fill="#827786" stroke="#282330" stroke-width="0.05679229262586212" stroke-linejoin="round" stroke-linecap="round" /></g><path d="M -37.85724964765608 -17.608023091933063 Q -29.053238101689555 -50.182865812009226 1.7608023091933063 -39.61805195684939" fill="none" stroke="#b0a0ad" stroke-width="4" stroke-linejoin="round" stroke-linecap="round" /></g><g transform="translate(58.569450519705676 -79.57913597246855) rotate(94.95454545454545)" opacity="1"><g transform="scale(73.0623521718563)"><path d="M 0.67 -0.28 C 0.83 -0.31 0.83 0.31 0.67 0.28 C 1.02 0.46 0.46 1.02 0.28 0.67 C 0.32 0.84 -0.32 0.84 -0.28 0.67 C -0.44 0.97 -0.97 0.44 -0.67 0.28 C -0.93 0.35 -0.93 -0.35 -0.67 -0.28 C -0.87 -0.39 -0.39 -0.87 -0.28 -0.67 C -0.38 -1.02 0.38 -1.02 0.28 -0.67 C 0.36 -0.81 0.81 -0.36 0.67 -0.28 Z" fill="#696173" stroke="#282330" stroke-width="0.06843469791718539" stroke-linejoin="round" stroke-linecap="round" /></g><path d="M -31.41681143389821 -14.61247043437126 Q -24.11057621671258 -41.645540737958086 1.461247043437126 -32.87805847733534" fill="none" stroke="#b0a0ad" stroke-width="4" stroke-linejoin="round" stroke-linecap="round" /></g><g transform="translate(102.3938451551849 -30.755256643708773) rotate(123.24852071005917)" opacity="1"><g transform="scale(80.75598901729748)"><path d="M 0.67 -0.28 C 0.90 -0.34 0.90 0.34 0.67 0.28 C 0.98 0.44 0.44 0.98 0.28 0.67 C 0.31 0.83 -0.31 0.83 -0.28 0.67 C -0.46 1.02 -1.02 0.46 -0.67 0.28 C -0.84 0.32 -0.84 -0.32 -0.67 -0.28 C -0.98 -0.44 -0.44 -0.98 -0.28 -0.67 C -0.34 -0.91 0.34 -0.91 0.28 -0.67 C 0.40 -0.89 0.89 -0.40 0.67 -0.28 Z" fill="#827786" stroke="#282330" stroke-width="0.06191491257606947" stroke-linejoin="round" stroke-linecap="round" /></g><path d="M -34.72507527743792 -16.151197803459496 Q -26.64947637570817 -46.03091373985956 1.6151197803459496 -36.340195057783866" fill="none" stroke="#b0a0ad" stroke-width="4" stroke-linejoin="round" stroke-linecap="round" /></g><g transform="translate(-7 -8.612903225806452) scale(180.9676972600392 162.79063670350797)" opacity="1"><path d="M 0.67 -0.28 C 1.03 -0.39 1.03 0.39 0.67 0.28 C 0.80 0.36 0.36 0.80 0.28 0.67 C 0.39 1.04 -0.39 1.04 -0.28 0.67 C -0.37 0.83 -0.83 0.37 -0.67 0.28 C -0.98 0.37 -0.98 -0.37 -0.67 -0.28 C -0.91 -0.41 -0.41 -0.91 -0.28 -0.67 C -0.34 -0.89 0.34 -0.89 0.28 -0.67 C 0.45 -1.00 1.00 -0.45 0.67 -0.28 Z" fill="#ed592b" stroke="#282330" stroke-width="0.04078334085099985" stroke-linejoin="round" stroke-linecap="round" /><g transform="translate(-.04 -.09) scale(.87 .88)"><path d="M 0.67 -0.28 C 1.03 -0.39 1.03 0.39 0.67 0.28 C 0.80 0.36 0.36 0.80 0.28 0.67 C 0.39 1.04 -0.39 1.04 -0.28 0.67 C -0.37 0.83 -0.83 0.37 -0.67 0.28 C -0.98 0.37 -0.98 -0.37 -0.67 -0.28 C -0.91 -0.41 -0.41 -0.91 -0.28 -0.67 C -0.34 -0.89 0.34 -0.89 0.28 -0.67 C 0.45 -1.00 1.00 -0.45 0.67 -0.28 Z" fill="#ff963b" stroke="none" stroke-width="0" stroke-linejoin="round" stroke-linecap="round" /></g><g transform="translate(-0.10838709677419354 -0.07741935483870968) rotate(4.800000000000001) scale(.72 .79)"><path d="M 0.67 -0.28 C 0.83 -0.31 0.83 0.31 0.67 0.28 C 1.02 0.46 0.46 1.02 0.28 0.67 C 0.32 0.84 -0.32 0.84 -0.28 0.67 C -0.44 0.97 -0.97 0.44 -0.67 0.28 C -0.93 0.35 -0.93 -0.35 -0.67 -0.28 C -0.87 -0.39 -0.39 -0.87 -0.28 -0.67 C -0.38 -1.02 0.38 -1.02 0.28 -0.67 C 0.36 -0.81 0.81 -0.36 0.67 -0.28 Z" fill="#ffd35c" stroke="none" stroke-width="0" stroke-linejoin="round" stroke-linecap="round" /></g><g transform="translate(-0.13064516129032258 -0.050645161290322586) rotate(4) scale(0.40516129032258064 0.4535483870967742)"><path d="M 0.67 -0.28 C 0.94 -0.35 0.94 0.35 0.67 0.28 C 0.86 0.39 0.39 0.86 0.28 0.67 C 0.39 1.02 -0.39 1.02 -0.28 0.67 C -0.36 0.80 -0.80 0.36 -0.67 0.28 C -1.04 0.39 -1.04 -0.39 -0.67 -0.28 C -0.83 -0.37 -0.37 -0.83 -0.28 -0.67 C -0.37 -0.99 0.37 -0.99 0.28 -0.67 C 0.41 -0.91 0.91 -0.41 0.67 -0.28 Z" fill="#fff3b5" stroke="none" stroke-width="0" stroke-linejoin="round" stroke-linecap="round" /></g><path d="M -.7 .29 C -.82 .04 -.63 -.16 -.49 -.13 M .46 -.48 C .68 -.36 .7 -.15 .56 -.02 M -.12 .64 Q .17 .73 .33 .53" fill="none" stroke="#ed692b" stroke-width="0.05" stroke-linejoin="round" stroke-linecap="round" /><path d="M -.72 -.18 Q -.88 -.39 -.63 -.5 M .42 -.69 Q .63 -.72 .68 -.51" fill="none" stroke="#ffc05d" stroke-width="0.023304766200571342" stroke-linejoin="round" stroke-linecap="round" /></g><g transform="translate(-77.94897959183673 35.724489795918366) rotate(23.214285714285715) scale(41.98418367346939)" opacity="1"><path d="M 0.67 -0.28 C 0.94 -0.35 0.94 0.35 0.67 0.28 C 0.96 0.43 0.43 0.96 0.28 0.67 C 0.32 0.85 -0.32 0.85 -0.28 0.67 C -0.46 1.02 -1.02 0.46 -0.67 0.28 C -0.83 0.31 -0.83 -0.31 -0.67 -0.28 C -1.00 -0.45 -0.45 -1.00 -0.28 -0.67 C -0.33 -0.88 0.33 -0.88 0.28 -0.67 C 0.41 -0.92 0.92 -0.41 0.67 -0.28 Z" fill="#f67a31" stroke="#282330" stroke-width="0.09527397343508853" stroke-linejoin="round" stroke-linecap="round" /><g transform="translate(-.1 -.14) scale(.72)"><path d="M 0.67 -0.28 C 0.94 -0.35 0.94 0.35 0.67 0.28 C 0.96 0.43 0.43 0.96 0.28 0.67 C 0.32 0.85 -0.32 0.85 -0.28 0.67 C -0.46 1.02 -1.02 0.46 -0.67 0.28 C -0.83 0.31 -0.83 -0.31 -0.67 -0.28 C -1.00 -0.45 -0.45 -1.00 -0.28 -0.67 C -0.33 -0.88 0.33 -0.88 0.28 -0.67 C 0.41 -0.92 0.92 -0.41 0.67 -0.28 Z" fill="#ffd064" stroke="none" stroke-width="0" stroke-linejoin="round" stroke-linecap="round" /></g></g><g transform="translate(0 53.69501845662672) rotate(68.78571428571429) scale(49.52142857142857)" opacity="1"><path d="M 0.67 -0.28 C 1.03 -0.39 1.03 0.39 0.67 0.28 C 0.85 0.39 0.39 0.85 0.28 0.67 C 0.36 0.95 -0.36 0.95 -0.28 0.67 C -0.43 0.95 -0.95 0.43 -0.67 0.28 C -0.86 0.32 -0.86 -0.32 -0.67 -0.28 C -1.01 -0.46 -0.46 -1.01 -0.28 -0.67 C -0.31 -0.82 0.31 -0.82 0.28 -0.67 C 0.45 -1.01 1.01 -0.45 0.67 -0.28 Z" fill="#f67a31" stroke="#282330" stroke-width="0.08077311409202366" stroke-linejoin="round" stroke-linecap="round" /><g transform="translate(-.1 -.14) scale(.72)"><path d="M 0.67 -0.28 C 1.03 -0.39 1.03 0.39 0.67 0.28 C 0.85 0.39 0.39 0.85 0.28 0.67 C 0.36 0.95 -0.36 0.95 -0.28 0.67 C -0.43 0.95 -0.95 0.43 -0.67 0.28 C -0.86 0.32 -0.86 -0.32 -0.67 -0.28 C -1.01 -0.46 -0.46 -1.01 -0.28 -0.67 C -0.31 -0.82 0.31 -0.82 0.28 -0.67 C 0.45 -1.01 1.01 -0.45 0.67 -0.28 Z" fill="#ffd064" stroke="none" stroke-width="0" stroke-linejoin="round" stroke-linecap="round" /></g></g><g transform="translate(76.72448979591837 22.732997487108545) rotate(114.35714285714286) scale(44.32459183673469)" opacity="1"><path d="M 0.67 -0.28 C 1.04 -0.39 1.04 0.39 0.67 0.28 C 0.80 0.36 0.36 0.80 0.28 0.67 C 0.39 1.04 -0.39 1.04 -0.28 0.67 C -0.38 0.84 -0.84 0.38 -0.67 0.28 C -0.96 0.36 -0.96 -0.36 -0.67 -0.28 C -0.93 -0.42 -0.42 -0.93 -0.28 -0.67 C -0.33 -0.87 0.33 -0.87 0.28 -0.67 C 0.46 -1.01 1.01 -0.46 0.67 -0.28 Z" fill="#f67a31" stroke="#282330" stroke-width="0.09024335778959025" stroke-linejoin="round" stroke-linecap="round" /><g transform="translate(-.1 -.14) scale(.72)"><path d="M 0.67 -0.28 C 1.04 -0.39 1.04 0.39 0.67 0.28 C 0.80 0.36 0.36 0.80 0.28 0.67 C 0.39 1.04 -0.39 1.04 -0.28 0.67 C -0.38 0.84 -0.84 0.38 -0.67 0.28 C -0.96 0.36 -0.96 -0.36 -0.67 -0.28 C -0.93 -0.42 -0.42 -0.93 -0.28 -0.67 C -0.33 -0.87 0.33 -0.87 0.28 -0.67 C 0.46 -1.01 1.01 -0.46 0.67 -0.28 Z" fill="#ffd064" stroke="none" stroke-width="0" stroke-linejoin="round" stroke-linecap="round" /></g></g><g transform="translate(-63.54838709677419 21.451612903225804) rotate(-0.5806451612903231)" opacity="0.2580645161290325"><g transform="scale(34.09738810465876)"><path d="M 0.67 -0.28 C 0.85 -0.32 0.85 0.32 0.67 0.28 C 0.96 0.43 0.43 0.96 0.28 0.67 C 0.35 0.94 -0.35 0.94 -0.28 0.67 C -0.39 0.86 -0.86 0.39 -0.67 0.28 C -1.02 0.39 -1.02 -0.39 -0.67 -0.28 C -0.80 -0.36 -0.36 -0.80 -0.28 -0.67 C -0.39 -1.04 0.39 -1.04 0.28 -0.67 C 0.37 -0.83 0.83 -0.37 0.67 -0.28 Z" fill="#736778" stroke="#282330" stroke-width="0.13197491802561734" stroke-linejoin="round" stroke-linecap="round" /></g><path d="M -14.661876885003268 -2.0458432862795255 C -17.04869405232938 -13.638955241863506 1.3638955241863504 -17.389667933375968 7.842399264071515 -8.52434702616469" fill="none" stroke="#b9a5ae" stroke-width="3.5" stroke-linejoin="round" stroke-linecap="round" /></g><g transform="translate(63.54838709677419 38.883128351497575) rotate(37.41935483870968)" opacity="0.2580645161290325"><g transform="scale(34.09738810465876)"><path d="M 0.67 -0.28 C 0.90 -0.34 0.90 0.34 0.67 0.28 C 0.98 0.44 0.44 0.98 0.28 0.67 C 0.31 0.83 -0.31 0.83 -0.28 0.67 C -0.46 1.02 -1.02 0.46 -0.67 0.28 C -0.84 0.32 -0.84 -0.32 -0.67 -0.28 C -0.98 -0.44 -0.44 -0.98 -0.28 -0.67 C -0.34 -0.91 0.34 -0.91 0.28 -0.67 C 0.40 -0.89 0.89 -0.40 0.67 -0.28 Z" fill="#736778" stroke="#282330" stroke-width="0.13197491802561734" stroke-linejoin="round" stroke-linecap="round" /></g><path d="M -14.661876885003268 -2.0458432862795255 C -17.04869405232938 -13.638955241863506 1.3638955241863504 -17.389667933375968 7.842399264071515 -8.52434702616469" fill="none" stroke="#b9a5ae" stroke-width="3.5" stroke-linejoin="round" stroke-linecap="round" /></g></svg>